<?xml version="1.0" encoding="utf-8"?>
<!-- Generator: Adobe Illustrator 15.0.0, SVG Export Plug-In . SVG Version: 6.00 Build 0)  -->
<!DOCTYPE svg PUBLIC "-//W3C//DTD SVG 1.1//EN" "http://www.w3.org/Graphics/SVG/1.1/DTD/svg11.dtd">
<svg version="1.1"
	 id="svg2" xmlns:dc="http://purl.org/dc/elements/1.1/" xmlns:cc="http://creativecommons.org/ns#" xmlns:rdf="http://www.w3.org/1999/02/22-rdf-syntax-ns#" xmlns:svg="http://www.w3.org/2000/svg" xmlns:sodipodi="http://sodipodi.sourceforge.net/DTD/sodipodi-0.dtd" xmlns:inkscape="http://www.inkscape.org/namespaces/inkscape" inkscape:version="0.48.1 r9760" sodipodi:docname="mathafix-fleur.svg"
	 xmlns="http://www.w3.org/2000/svg" xmlns:xlink="http://www.w3.org/1999/xlink" x="0px" y="0px" width="307.615px"
	 height="317.248px" viewBox="0 0 307.615 317.248" enable-background="new 0 0 307.615 317.248" xml:space="preserve">
<title  id="title3840">Fleur</title>
<defs>
	
	
		<inkscape:path-effect  spacing="0" effect="skeletal" pattern="m 511.13718,139.68936 a 13.63706,6.5659919 0 1 1 -27.27412,0 13.63706,6.5659919 0 1 1 27.27412,0 z" id="path-effect3803" is_visible="true" vertical_pattern="false" prop_units="false" tang_offset="0" prop_scale="0.5" fuse_tolerance="0" copytype="single_stretched" normal_offset="0" scale_y_rel="false">
		</inkscape:path-effect>
	
		<inkscape:path-effect  spacing="0" effect="skeletal" pattern="m 511.13718,139.68936 a 13.63706,6.5659919 0 1 1 -27.27412,0 13.63706,6.5659919 0 1 1 27.27412,0 z" id="path-effect3003" is_visible="true" vertical_pattern="false" prop_units="false" tang_offset="0" prop_scale="1" fuse_tolerance="0" copytype="single_stretched" normal_offset="0" scale_y_rel="false">
		</inkscape:path-effect>
</defs>
<sodipodi:namedview  showgrid="false" inkscape:cx="538.75725" inkscape:zoom="0.49497475" borderopacity="1.0" bordercolor="#666666" pagecolor="#ffffff" inkscape:cy="180.80417" id="base" inkscape:window-y="51" inkscape:window-x="283" inkscape:window-height="988" inkscape:window-width="1562" inkscape:current-layer="layer1" inkscape:document-units="px" inkscape:pageshadow="2" inkscape:pageopacity="0.0" inkscape:window-maximized="0" fit-margin-top="0" fit-margin-left="0" fit-margin-right="0" fit-margin-bottom="0">
	</sodipodi:namedview>
<path id="path2985" sodipodi:nodetypes="zczczczczcz" inkscape:connector-curvature="0" fill="#FFFFFF" stroke="#231F20" stroke-miterlimit="10" d="
	M292.7,60.889c21.835,28.711,7.617,69.181-48.248,96.858c64.405-14.121,72.994,65.02,52.436,94.656
	c-20.559,29.64-69.508,40.774-107.027-15.957c18.162,50.271-39.281,89.516-73.82,79.121c-34.54-10.395-74.126-54.483-17.897-106.721
	c-71.07,41.65-97.271-9.695-98.06-45.759c-0.788-36.062,34.418-93.177,95.967-49.999C42.858,64.023,75.213,17.581,109.266,5.688
	c34.053-11.893,66.355-2.587,77.208,75.819C194.215,1.433,270.866,32.178,292.7,60.889L292.7,60.889z"/>
<path id="path2988" inkscape:connector-curvature="0" fill="#231F20" stroke="#231F20" stroke-width="3" stroke-linecap="round" stroke-linejoin="round" d="
	M149.052,1.544c-31.974-1.241-65.575,23.349-66.146,56.95c-3.095,8.514,7.842,24.563,5.585,25.924
	C66.702,71.606,37.605,78.22,21.684,97.26c-24.438,25.746-27.862,70.861-3.488,97.711c13.068,14.009,34.163,17.488,51.751,10.759
	c7.57-2.211,17.821-7.675,5.528-0.363c-14.19,8.781-24.803,23.746-24.492,40.918c-0.303,29.135,23.516,56.084,51.581,61.941
	c28.627,4.029,60.277-11.219,72.74-37.689c3.518-6.903,1.566-25.947,1.288-25.934c5.722,17.996,17.034,35.549,35.677,41.973
	c29.483,12.822,67.043-5.09,75.879-35.973c8.918-25.262,6.684-59.641-17.998-75.248c-6.184-6.804-26.923-4.894-26.761-4.363
	c26.681-4.938,54.06-21.671,61.359-49.286c3.618-9.103-0.661-28.35-5.354-30.535c8.876,20.782-1.344,44.71-19.213,57.054
	c-13.146,9.661-27.269,18.084-42.536,23.946c17.477,3.065,37.457,11.431,42.84,30.095c6.778,22.883,1.637,51.135-17.064,67
	c-17.979,15.161-46.404,13.213-62.744-3.47c-10.885-5.866-21.697-24.345-26.822-27.963c-1.871,30.237-28.067,57.028-58.604,58.303
	c-25.062,1.872-47.616-20.683-51.108-44.546c-0.823-22.273,13.588-42.029,29.566-56.23c-20.685,4.424-44.453,5.486-62.806-6.517
	c-21.682-19.129-20.769-55.491-4.123-77.635C38.062,93.45,62.483,84.106,81.637,94.715c7.066,1.968,23.694,11.715,24.286,9.219
	c-10.164-19.708-16.748-45.063-5.708-65.72c13.766-22.928,47.358-34.113,71.011-20.297c16.133,11.889,18.959,33.587,23.045,51.847
	c2.418,7.297-0.234,31.657,6.502,13.656c8.215-13.78,19.188-30.248,37.242-30.125c25.018,0.018,46.791,17.376,61.162,36.281
	c-10.357-22.91-33.992-40.117-59.107-42.423c-21.555-1.754-41.074,16.431-42.607,37.698c-0.612,3.478,1.697-16.361,1.249-22.102
	c1.642-24.579-10.44-53.776-36.658-59.705C157.794,2.05,153.421,1.576,149.052,1.544L149.052,1.544z"/>
<path id="path3013" inkscape:connector-curvature="0" fill="#FFFFFF" stroke="#231F20" stroke-width="3" d="M172.424,144.583
	c-2.397-0.972-4.128-3.068-6.552-4.023c-6.756-3.381-15.781-1.884-20.617,4.075c-4.342,5.101-4.995,12.977-1.355,18.642
	c3.752,6.063,11.828,8.996,18.568,6.563c7.332-2.393,12.122-10.318,11.277-17.916c-0.209-2.375-0.938-4.657-1.434-6.978
	c2.331-0.188,3.086,3.109,4.071,4.779c3.451,8.617-0.524,19.125-8.339,23.903c-7.198,4.598-17.135,4.323-24-0.798
	c-7.6-5.344-10.999-15.892-7.762-24.632c2.589-7.495,9.598-13.306,17.546-14.059c7.213-0.801,15.254,2.554,18.519,9.286
	C172.485,143.791,172.55,144.204,172.424,144.583L172.424,144.583z"/>
</svg>
