<?xml version="1.0" encoding="UTF-8" standalone="no"?>
<svg width="497.75" xmlns="http://www.w3.org/2000/svg" height="417.71">
 <g id="layer1" stroke-linecap="round" stroke="#fff" fill="#0f0f0f">
  <path id="path15923" d="m456.89 31.532c4.1102 6.5385 10.422 14.633 10.059 21.468l-15.44 0.9583 5.2026-21.659"/>
  <path id="path15925" d="m34.993 29.092c-4.5374 6.5384-11.525 14.632-11.119 21.468l17.063 0.9583-5.7543-21.66"/>
  <path id="path15927" d="m226.45 160.44c-1.1465 1.1909-2.6392 2.2482-3.0664 2.782-27.971 34.974 27.322 186.07-109.73 223.33 13.829-12.023 61.772-46.938 58.376-77.686-14.478 5.0074-27.565 29.9-63.432 20.381 101.02-34.956 43.736-180.26 110.9-180.96 0.48674-0.005005 5.2838-3.2616 8.0311-3.1589"/>
  <path id="path15929" stroke-width="1.84" d="m226.45 160.44c-1.1465 1.1909-2.6392 2.2482-3.0664 2.782-27.971 34.974 17.739 180.32-103.98 220.26 13.823-12.023 57.164-46.554 53.773-77.304-16.398 2.7079-26.035 29.517-63.816 23.065 101.02-34.956 42.968-180.26 110.14-180.96 0.48674-0.005005 5.2838-3.2616 8.0311-3.1589"/>
  <path id="path15931" d="m209.8 170.55c-66.59 77.183-75.579 167.62-187.6 170.21 17.371-5.8057 54.709-18.32 63.362-48.021-2.823 6.1231-39.636 11.086-69.111-11.454 136.79 9.421 138.77-157.11 201.08-132.01"/>
  <path id="path15933" stroke-width="1.84" d="m225.08 159.51c-76.898 64.796-92.084 179.01-198.01 179.26 17.76-7.3389 51.329-18.773 59.976-47.796-2.8176 6.1226-37.998 8.6466-67.753-9.4221 134.76 7.7947 141.29-163.23 205.9-137.74"/>
  <path id="path15935" opacity=".461" d="m226.45 160.44c-1.1465 1.1909-2.6392 2.2482-3.0664 2.782-27.971 34.974 17.739 180.32-103.98 220.26 13.823-12.023 57.164-46.554 53.773-77.304-16.398 2.7079-26.035 29.517-63.816 23.065 101.02-34.956 42.968-180.26 110.14-180.96 0.48674-0.005005 5.2838-3.2616 8.0311-3.1589"/>
  <path id="path15937" d="m225.08 159.51c-76.898 64.796-92.084 179.01-198.01 179.26 17.76-7.3389 51.329-18.773 59.976-47.796-2.8176 6.1226-37.998 8.6466-67.753-9.4221 134.76 7.7947 141.29-163.23 205.9-137.74"/>
  <path id="path15939" d="m237.03 130.95c-86.444 11.188-214.36 76.5-220.72-16.823 16.111-27.371 18.956-35.981 15.776-64.84 9.5886 70.695 136.02 38.168 213.4 62.999"/>
  <path id="path15941" d="m242.33 93.585c-195.3-189.2-350.85 4.3319-5.035 15.604"/>
  <path id="path15943" d="m237.03 130.95c-86.801 9.6373-216.29 68.018-220.72-16.823 16.111-27.371 18.014-35.083 14.829-63.943 9.5886 70.695 136.96 37.271 214.34 62.102"/>
  <path id="path15945" opacity=".283" d="m237.03 130.95c-86.801 9.6373-216.29 68.018-220.72-16.823 16.111-27.371 20.686-34.236 17.501-63.095 9.5941 70.695 134.3 36.423 211.67 61.254"/>
  <path id="path15947" opacity=".439" d="m236.35 132.15c-86.795 9.6373-216.29 68.018-220.72-16.823 16.111-27.371 20.989-35.062 17.804-63.92 9.594 70.695 133.99 37.249 211.37 62.079"/>
  <path id="path15949" d="m242.33 93.585c-195.3-189.2-350.85 4.3319-5.035 15.604"/>
  <path id="path15951" d="m239.82 152.03c-91.122 23.986-219 112.47-239.14 11.912 13.374-31.952 7.3875-60.093-0.16224-91.023 20.378 75.523 159.15 41.271 245.69 57.671"/>
  <path id="path15953" d="m242.12 111.53c-262.92-175.54-375.1 52.629-0.9951 17.37"/>
  <path id="path15955" d="m239.82 152.03c-91.722 22.348-222.28 103.51-239.14 11.912 13.374-31.952 7.1874-59.696-0.32449-90.626 20.383 75.522 159.35 40.873 245.89 57.274"/>
  <path id="path15957" opacity=".283" d="m239.82 152.03c-91.722 22.348-222.28 103.51-239.14 11.912 13.374-31.952 7.1334-58.753-0.37857-89.683 20.383 75.523 159.4 39.93 245.94 56.331"/>
  <path id="path15959" opacity=".439" d="m239.27 153.42c-91.722 22.348-222.28 103.51-239.14 11.911 13.369-31.952 7.6255-56.316 0.10816-87.246 20.378 75.523 158.9 37.493 245.44 53.894"/>
  <path id="path15961" d="m242.12 111.53c-262.92-175.54-375.1 52.629-0.9951 17.37"/>
  <path id="path15963" stroke-width="1.275" d="m224.22 104.58c-114.08-90.659-227.54-64.137-223.48-25.626 2.7906 26.523 63.313 61.018 222.68 50.243"/>
  <path id="path15965" d="m264.22 130.64c82.874 10.802 205.5 73.861 211.59-16.242-15.44-26.427-18.171-34.74-15.121-62.603-9.1938 68.256-130.4 36.852-204.57 60.825"/>
  <path id="path15967" d="m259.14 94.568c187.22-182.67 336.34 4.1827 4.8241 15.066"/>
  <path id="path15969" d="m264.22 130.64c83.21 9.3047 207.34 65.671 211.59-16.242-15.44-26.427-17.274-33.873-14.218-61.737-9.1938 68.256-131.29 35.986-205.47 59.96"/>
  <path id="path15971" opacity=".283" d="m264.22 130.64c83.21 9.3047 207.34 65.671 211.59-16.242-15.44-26.427-19.826-33.055-16.782-60.918-9.1938 68.256-128.74 35.168-202.91 59.141"/>
  <path id="path15973" opacity=".439" d="m264.87 131.8c83.204 9.3047 207.34 65.671 211.59-16.242-15.446-26.427-20.118-33.852-17.068-61.716-9.1938 68.256-128.44 35.964-202.62 59.938"/>
  <path id="path15975" d="m259.14 94.568c187.22-182.67 336.34 4.1827 4.8241 15.066"/>
  <path id="path15977" d="m272.53 153.94c1.3899 1.1909 3.3044 2.1638 3.7208 2.782 28.539 42.641-7.5714 330.55 119.86 261.28-16.749-7.1442-48.576-6.8197-44.466-37.568 17.549 5.008 27.246-2.749 36.802-10.734-95.968-56.807-42.259-221.56-106.17-229-1.1195-0.12979-8.3718-2.1103-9.567-2.1422"/>
  <path id="path15979" stroke-width="1.84" d="m272.53 153.94c1.3899 1.1909 3.2017 2.2476 3.7208 2.782 33.904 34.974-6.9819 321.67 119.86 261.28-18.918-4.9755-52.221-7.6822-47.916-41.498 14.678 1.3661 23.504 5.6851 38.625-7.2837-95.968-56.807-40.631-221.08-104.54-228.52-1.1195-0.12979-8.3718-2.1103-9.567-2.1422"/>
  <path id="path15981" opacity=".535" d="m272.53 153.94c1.3899 1.1909 3.2017 2.2476 3.7208 2.782 33.904 34.974-6.9819 321.67 119.86 261.28-18.918-4.9755-52.221-7.6822-47.916-41.498 14.678 1.3661 23.504 5.6851 38.625-7.2837-95.968-56.807-40.631-221.08-104.54-228.52-1.1195-0.12979-8.3718-2.1103-9.567-2.1422"/>
  <path id="path15983" d="m297.04 153.71c8.0365-11.51 15.392 9.9353 18.382 19.482 8.2366 36.508 32.444 247.43 182.32 219.71-11.476-6.1431-62.616-2.4883-77.699-39.827 22.849 12.012 46.926 4.8549 54.271-5.1994-118.23-33.32-107.7-212.69-171.43-204.48-1.1195 0.14059-10.935-0.84421-12.103-0.58624"/>
  <path id="path15985" stroke-width="1.84" d="m275.16 152.49c74.703-25.047 29.253 256.58 221.06 240.03-11.481-6.1437-60.539-9.9667-79.694-42.968 22.849 12.012 49.23 7.4303 56.575-2.624-132.44-43.587-95.448-229.64-197.15-209.81"/>
  <path id="path15987" opacity=".417" d="m275.16 152.49c74.703-25.047 29.253 256.58 221.06 240.03-11.481-6.1437-60.539-9.9667-79.694-42.968 22.849 12.012 49.23 7.4303 56.575-2.624-132.44-43.587-95.448-229.64-197.15-209.81"/>
  <path id="path15989" d="m261.56 150.99c87.342 23.158 209.93 108.59 229.24 11.5-12.817-30.85-7.0739-58.02 0.16223-87.883-19.523 72.918-152.56 39.846-235.51 55.682"/>
  <path id="path15991" d="m259.34 111.89c252.04-169.48 359.58 50.814 0.96265 16.772"/>
  <path id="path15993" d="m261.56 150.99c87.92 21.577 213.08 99.942 229.24 11.5-12.817-30.85-6.8846-57.636 0.32449-87.5-19.529 72.917-152.75 39.463-235.71 55.298"/>
  <path id="path15995" opacity=".283" d="m261.56 150.99c87.92 21.577 213.08 99.942 229.24 11.5-12.817-30.85-6.8359-56.726 0.37857-86.589-19.529 72.918-152.8 38.552-235.76 54.388"/>
  <path id="path15997" opacity=".439" d="m262.08 152.34c87.92 21.577 213.08 99.943 229.24 11.5-12.817-30.85-7.3118-54.373-0.10812-84.236-19.529 72.918-152.33 36.2-235.28 52.034"/>
  <path id="path15999" d="m259.34 111.89c252.04-169.48 359.58 50.814 0.96265 16.772"/>
  <path id="path16001" stroke-width="1.227" d="m276.5 105.19c109.36-87.531 218.12-61.925 214.23-24.742-2.677 25.608-60.696 58.913-213.46 48.51"/>
  <path id="path16003" stroke-width="1.84" d="m277.63 135.18c7.8039-48.768-6.7224-48.943-23.828-47.816-16.992 1.1119-24.439 2.2363-27.906 37.76-4.3319 35.687 7.1442 43.368 24.142 44.194 25.846 1.2709 23.834-0.51376 27.592-34.139z"/>
  <path id="path16005" opacity=".857" d="m277.63 135.18c7.8039-48.768-6.7224-48.943-23.828-47.816-16.992 1.1119-24.439 2.2363-27.906 37.76-4.3319 35.687 7.1442 43.368 24.142 44.194 25.846 1.2709 23.834-0.51376 27.592-34.139z"/>
  <path id="path16007" opacity=".726" d="m277.63 135.18c7.8039-48.768-6.7224-48.943-23.828-47.816-16.992 1.1119-24.439 2.2363-27.906 37.76-4.3319 35.687 7.1442 43.368 24.142 44.194 25.846 1.2709 23.834-0.51376 27.592-34.139z"/>
 </g>
</svg>
